name Walk5.mot
datacolumns 19
datarows 15
range 2.10500000 2.17500000
endheader

                time	   L_ground_force_vx	   L_ground_force_vy	   L_ground_force_vz	   L_ground_force_px	   L_ground_force_py	   L_ground_force_pz	   R_ground_force_vx	   R_ground_force_vy	   R_ground_force_vz	   R_ground_force_px	   R_ground_force_py	   R_ground_force_pz	   L_ground_torque_x	   L_ground_torque_y	   L_ground_torque_z	   R_ground_torque_x	   R_ground_torque_y	   R_ground_torque_z	
          2.10500000	         -0.00000001	         -0.00000003	          0.00000000	          0.00000000	          0.00000000	          0.00000000	         -1.40482426	         -5.10161047	         -0.14438190	          0.05551330	          0.00000000	          0.00531120	          0.00000000	         -0.00000000	          0.00000000	          0.00000000	          0.30962989	          0.00000000	
          2.11000000	         -0.00000001	         -0.00000002	          0.00000000	          0.00000000	          0.00000000	          0.00000000	         -1.55250103	         -5.89410092	         -0.25497380	          0.02647983	          0.00000000	          0.00279747	          0.00000000	         -0.00000000	          0.00000000	          0.00000000	          0.33104077	          0.00000000	
          2.11500000	         -0.00000001	         -0.00000002	          0.00000000	          0.00000000	          0.00000000	          0.00000000	         -1.52441922	         -5.93615757	         -0.30572890	          0.00576699	          0.00000000	          0.00096421	          0.00000000	         -0.00000000	          0.00000000	          0.00000000	          0.31858983	          0.00000000	
          2.12000000	         -0.00000000	         -0.00000001	          0.00000000	          0.00000000	          0.00000000	          0.00000000	         -1.38584777	         -5.49364940	         -0.31409771	         -0.00797184	          0.00000000	         -0.00028768	          0.00000000	         -0.00000000	          0.00000000	          0.00000000	          0.28540868	          0.00000000	
          2.12500000	         -0.00000000	         -0.00000001	          0.00000000	          0.00000000	          0.00000000	          0.00000000	         -1.18738078	         -4.77539624	         -0.29462313	         -0.01615182	          0.00000000	         -0.00106774	          0.00000000	         -0.00000000	          0.00000000	          0.00000000	          0.24155788	          0.00000000	
          2.13000000	         -0.00000000	         -0.00000000	          0.00000000	          0.00000000	          0.00000000	          0.00000000	         -0.96620028	         -3.93711830	         -0.25883333	         -0.02012006	          0.00000000	         -0.00148353	          0.00000000	         -0.00000000	          0.00000000	          0.00000000	          0.19433290	          0.00000000	
          2.13500000	         -0.00000000	         -0.00000000	          0.00000000	          0.00000000	          0.00000000	          0.00000000	         -0.74794675	         -3.08816845	         -0.21541144	         -0.02107357	          0.00000000	         -0.00163284	          0.00000000	         -0.00000000	          0.00000000	          0.00000000	          0.14867905	          0.00000000	
          2.14000000	         -0.00000000	          0.00000000	          0.00000000	          0.00000000	          0.00000000	          0.00000000	         -0.54883145	         -2.29951656	         -0.17052938	         -0.02001837	          0.00000000	         -0.00159946	          0.00000000	         -0.00000000	          0.00000000	          0.00000000	          0.10764341	          0.00000000	
          2.14500000	          0.00000000	          0.00000000	          0.00000000	          0.00000000	          0.00000000	          0.00000000	         -0.37773673	         -1.61190543	         -0.12826058	         -0.01775848	          0.00000000	         -0.00145155	          0.00000000	         -0.00000000	          0.00000000	          0.00000000	          0.07281476	          0.00000000	
          2.15000000	          0.00000000	          0.00000000	         -0.00000000	          0.00000000	          0.00000000	          0.00000000	         -0.23814259	         -1.04347151	         -0.09101055	         -0.01490477	          0.00000000	         -0.00124190	          0.00000000	          0.00000000	          0.00000000	          0.00000000	          0.04472105	          0.00000000	
          2.15500000	          0.00000000	          0.00000000	         -0.00000000	          0.00000000	          0.00000000	          0.00000000	         -0.12978938	         -0.59641986	         -0.05992499	         -0.01189596	          0.00000000	         -0.00100923	          0.00000000	          0.00000000	          0.00000000	          0.00000000	          0.02316820	          0.00000000	
          2.16000000	          0.00000000	          0.00000000	         -0.00000000	         -0.00000000	          0.00000000	         -0.00000000	         -0.05003979	         -0.26256470	         -0.03525109	         -0.00902564	          0.00000000	         -0.00078021	          0.00000000	          0.00000000	          0.00000000	          0.00000000	          0.00751446	          0.00000000	
          2.16500000	          0.00000000	          0.00000000	         -0.00000000	         -0.00000000	          0.00000000	         -0.00000000	          0.00505962	         -0.02770416	         -0.01664025	         -0.00647114	          0.00000000	         -0.00057164	          0.00000000	          0.00000000	          0.00000000	          0.00000000	         -0.00311829	          0.00000000	
          2.17000000	          0.00000000	          0.00000000	         -0.00000000	         -0.00000000	          0.00000000	         -0.00000000	          0.03999365	          0.12509842	         -0.00338944	         -0.00432120	          0.00000000	         -0.00039268	          0.00000000	          0.00000000	          0.00000000	          0.00000000	         -0.00969025	          0.00000000	
          2.17500000	          0.00000000	          0.00000000	         -0.00000000	         -0.00000000	          0.00000000	         -0.00000000	          0.05923315	          0.21319398	          0.00537611	         -0.00260073	          0.00000000	         -0.00024685	          0.00000000	          0.00000000	          0.00000000	          0.00000000	         -0.01313833	          0.00000000	
